<svg width="110" height="35" viewBox="0 0 110 35" fill="none" xmlns="http://www.w3.org/2000/svg">
<path fill-rule="evenodd" clip-rule="evenodd" d="M30.9808 24.4026C30.8043 24.7588 30.6233 25.1102 30.4377 25.4569C29.4102 27.3775 28.2105 29.0431 26.8382 30.454C25.4665 31.8668 23.8976 32.9771 22.1331 33.7859C20.3674 34.5939 18.382 35 16.1751 35C14.3009 35 12.5974 34.7939 11.0666 34.3821C9.5352 33.971 8.1728 33.3991 6.9812 32.6654C5.7882 31.9315 4.7499 31.0681 3.8678 30.0743C2.9856 29.0806 2.2581 28.0046 1.6854 26.846C1.1129 25.6881 0.6892 24.4675 0.4135 23.185C0.1381 21.9032 0 20.6177 0 19.3302C0 17.8352 0.1966 16.3309 0.5887 14.8172C0.9827 13.302 1.5488 11.8524 2.2857 10.467C3.0239 9.0815 3.9298 7.7866 5.0051 6.5811C6.0817 5.3744 7.2987 4.325 8.6559 3.4343C10.0146 2.5442 11.5119 1.84424 13.1455 1.33728C14.7796 0.83031 16.52 0.57609 18.3681 0.57609C19.1946 0.57609 19.9914 0.70293 20.758 0.95567C21.5223 1.20989 22.1983 1.53527 22.7847 1.93291C23.3711 2.33037 23.8361 2.7789 24.181 3.2809C24.5243 3.7807 24.698 4.2782 24.698 4.7715C24.698 5.2094 24.6154 5.6133 24.4499 5.9835C24.2842 6.3544 24.0588 6.6733 23.7782 6.9406C23.494 7.2085 23.1671 7.4136 22.7949 7.5569C22.4217 7.7018 22.0363 7.7737 21.6357 7.7737C20.9871 7.7737 20.4948 7.6196 20.1571 7.3113C19.8186 7.0031 19.6509 6.6503 19.6509 6.2513C19.6509 6.0461 19.6712 5.8675 19.7131 5.7163C19.7536 5.5659 19.7738 5.416 19.7738 5.2649C19.7738 5.1135 19.7051 4.9869 19.5677 4.8838C19.4297 4.7809 19.2677 4.6987 19.0818 4.6375C18.896 4.5758 18.7022 4.5346 18.5026 4.5144C18.3031 4.4928 18.1469 4.4836 18.0369 4.4836C17.0029 4.4836 16.0405 4.6556 15.1513 4.997C14.2626 5.3404 13.4456 5.8092 12.7007 6.4054C11.9568 7.0031 11.2944 7.709 10.7153 8.5234C10.1353 9.3399 9.6457 10.22 9.2466 11.1663C8.8461 12.1124 8.5437 13.1033 8.3355 14.1382C8.1295 15.1722 8.0267 16.2186 8.0267 17.2741C8.0267 19.2611 8.2748 21.0132 8.7701 22.5281C9.2668 24.0419 9.9429 25.3137 10.7976 26.342C11.653 27.3711 12.6589 28.1451 13.8178 28.6658C14.9762 29.1878 16.217 29.4472 17.5418 29.4472C18.8512 29.4472 20.1636 29.2217 21.4817 28.7688C22.7977 28.3159 24.0558 27.6511 25.2555 26.7734C26.4557 25.8963 27.5627 24.8067 28.5772 23.5054C29.5656 22.2329 30.4077 20.7654 31.1011 19.1016L31.1202 18.2809C31.1824 15.6222 31.2302 13.3936 31.264 11.5975C31.2981 9.8023 31.3292 8.3765 31.3573 7.3207C31.3849 6.2651 31.4023 5.4463 31.4095 4.863C31.416 4.2804 31.4225 3.8771 31.4297 3.6511C31.4362 3.4241 31.4406 3.2492 31.4406 3.1253C31.4406 2.7142 31.5476 2.34825 31.7609 2.02638C31.9748 1.70303 32.2468 1.42595 32.5779 1.19256C32.9091 0.95991 33.2743 0.76764 33.6741 0.61794C34.0747 0.46659 34.4673 0.34566 34.8534 0.25717C35.2396 0.16776 35.6018 0.10305 35.9394 0.0619402C36.2771 0.0202802 36.5425 0 36.7363 0C37.0386 0 37.2939 0.12315 37.5006 0.37091C37.7081 0.61794 37.8736 1.08029 37.9967 1.75852C38.1217 2.43693 38.2114 3.3795 38.267 4.5865C38.3212 5.7934 38.3488 7.3488 38.3488 9.2536C38.3488 10.7211 38.3351 12.4243 38.3075 14.3642C38.2809 16.3036 38.2388 18.5215 38.1839 21.0152C38.5006 20.0151 38.8832 19.0443 39.3313 18.1067C39.7804 17.1676 40.3387 16.3345 41.0075 15.6078C41.6763 14.882 42.4891 14.2995 43.4479 13.8602C44.4066 13.4216 45.547 13.2019 46.8716 13.2019C48.0293 13.2019 48.9779 13.4799 49.7147 14.0359C50.4529 14.5897 51.0358 15.4019 51.4632 16.4713C51.8904 17.5407 52.1832 18.8463 52.3424 20.388C52.5014 21.9319 52.5803 23.689 52.5803 25.6636C52.5803 26.061 52.5868 26.4342 52.6012 26.7841C52.6142 27.1342 52.6627 27.4387 52.745 27.6994C52.8283 27.9601 52.9562 28.1659 53.1284 28.3159C53.3004 28.467 53.5462 28.5426 53.8622 28.5426C54.2209 28.5426 54.6185 28.3684 55.0524 28.0185C55.487 27.6684 55.9244 27.2125 56.3663 26.6502C56.8066 26.09 57.2483 25.454 57.6894 24.749C58.1305 24.0419 58.5448 23.3362 58.9302 22.6305C59.317 21.9255 59.6619 21.2493 59.9642 20.6048C60.2684 19.9616 60.5098 19.4131 60.689 18.9604C60.6906 18.7077 60.6939 18.4368 60.6989 18.1478C60.7053 17.7301 60.73 17.3081 60.772 16.8832C60.8123 16.4577 60.871 16.0429 60.9469 15.6388C61.0213 15.2349 61.1327 14.8776 61.278 14.5694C61.4219 14.2613 61.6049 14.0114 61.8262 13.8191C62.0459 13.6275 62.315 13.5319 62.633 13.5319C62.8254 13.5319 63.0915 13.5512 63.4292 13.5923C63.7668 13.634 64.1298 13.7031 64.5152 13.799C64.9006 13.8954 65.2939 14.025 65.6945 14.1885C66.093 14.3535 66.456 14.5522 66.78 14.7854C67.1032 15.0181 67.3691 15.2924 67.5767 15.6078C67.7836 15.924 67.8862 16.2862 67.8862 16.6981C67.8862 17.0827 67.8826 17.6336 67.8754 18.3522C67.8702 19.0731 67.8588 19.861 67.8456 20.7178C67.8319 21.5747 67.8212 22.4419 67.8145 23.3188C67.8073 24.1974 67.803 24.9788 67.803 25.6636C67.803 26.061 67.8103 26.4342 67.824 26.7841C67.8384 27.1341 67.8862 27.4387 67.9693 27.6994C68.0518 27.9601 68.179 28.1659 68.3519 28.3159C68.5246 28.467 68.7684 28.5426 69.0858 28.5426C69.4444 28.5426 69.8422 28.3684 70.2751 28.0185C70.709 27.6684 71.1472 27.2125 71.589 26.6502C72.0294 26.09 72.472 25.454 72.9129 24.749C73.354 24.0419 73.7684 23.3362 74.1538 22.6305C74.5405 21.9255 74.8856 21.2493 75.1878 20.6048C75.4922 19.961 75.7322 19.4123 75.9124 18.9593L75.9152 18.9514C75.9221 18.3148 75.9419 17.6191 75.9738 16.8616C76.0156 15.9024 76.0915 14.9021 76.2015 13.8602C76.3122 12.8188 76.464 11.7553 76.6563 10.673C76.8494 9.5899 77.1017 8.5413 77.4112 7.5259C77.7214 6.5127 78.0974 5.5622 78.5392 4.6779C78.9796 3.7943 79.5008 3.0195 80.1009 2.35489C80.7005 1.68939 81.3902 1.16528 82.1689 0.78128C82.9484 0.39746 83.8277 0.20518 84.806 0.20518C85.6882 0.20518 86.4164 0.42567 86.9883 0.8635C87.5602 1.30354 88.0092 1.88609 88.3331 2.6111C88.6578 3.3386 88.882 4.1754 89.0056 5.1201C89.1285 6.0662 89.1915 7.0464 89.1915 8.0611C89.1915 8.6781 89.1191 9.3558 88.9745 10.0969C88.8292 10.8378 88.6267 11.6054 88.365 12.3998C88.1025 13.1947 87.7851 13.994 87.4134 14.7948C87.0404 15.5984 86.6304 16.3683 86.1828 17.1094C85.7345 17.8495 85.245 18.5352 84.7141 19.1652C84.182 19.7961 83.6353 20.3311 83.0693 20.7697C83.0693 21.1535 83.0758 21.6129 83.0895 22.1465C83.1032 22.6823 83.1387 23.2375 83.1922 23.8136C83.2477 24.3876 83.3375 24.9579 83.4626 25.5189C83.5863 26.0813 83.754 26.5883 83.9687 27.0413C84.182 27.4934 84.4517 27.8572 84.7749 28.1315C85.0995 28.4051 85.4958 28.5426 85.9651 28.5426C86.3238 28.5426 86.7199 28.3684 87.1546 28.0185C87.5885 27.6684 88.0251 27.2125 88.4677 26.6502C88.9086 26.09 89.3498 25.454 89.7916 24.749C90.232 24.0419 90.646 23.3362 91.032 22.6305C91.419 21.9255 91.763 21.2493 92.067 20.6048C92.37 19.961 92.612 19.4123 92.79 18.9593L92.791 18.9566C92.793 18.705 92.796 18.4354 92.802 18.1478C92.808 17.7301 92.831 17.3081 92.873 16.8832C92.914 16.4577 92.974 16.0429 93.048 15.6388C93.124 15.2349 93.236 14.8776 93.38 14.5694C93.525 14.2613 93.706 14.0114 93.928 13.8191C94.149 13.6275 94.418 13.5319 94.735 13.5319C94.928 13.5319 95.193 13.5512 95.532 13.5923C95.869 13.634 96.231 13.7031 96.618 13.799C97.004 13.8954 97.395 14.025 97.796 14.1885C98.197 14.3535 98.559 14.5522 98.883 14.7854C99.206 15.0181 99.472 15.2924 99.678 15.6078C99.884 15.924 99.989 16.2862 99.989 16.6981C99.989 17.0827 99.985 17.6336 99.978 18.3522C99.971 19.0731 99.961 19.861 99.947 20.7178C99.933 21.5747 99.922 22.4419 99.916 23.3188C99.909 24.1974 99.907 24.9788 99.907 25.6636C99.907 26.061 99.913 26.4342 99.926 26.7841C99.94 27.1342 99.989 27.4387 100.071 27.6994C100.155 27.9601 100.281 28.1659 100.455 28.3159C100.627 28.467 100.871 28.5426 101.189 28.5426C101.547 28.5426 101.943 28.3684 102.377 28.0185C102.812 27.6684 103.25 27.2125 103.691 26.6502C104.132 26.09 104.573 25.454 105.014 24.749C105.455 24.0419 105.87 23.3362 106.257 22.6305C106.642 21.9255 106.987 21.2493 107.291 20.6048C107.594 19.961 107.835 19.4123 108.014 18.9593C108.097 18.7267 108.242 18.546 108.448 18.415C108.656 18.2839 108.925 18.2189 109.256 18.2189C109.462 18.2189 109.638 18.2788 109.782 18.3947C109.928 18.5106 110 18.685 110 18.919V19.0623C110 19.1176 109.986 19.1781 109.959 19.2473C109.683 20.0568 109.337 20.9901 108.925 22.0442C108.51 23.1001 108.028 24.1866 107.476 25.3043C106.926 26.4205 106.315 27.5207 105.646 28.6031C104.977 29.6876 104.249 30.654 103.463 31.5045C102.677 32.3542 101.84 33.0383 100.95 33.5604C100.061 34.0803 99.133 34.341 98.168 34.341C97.01 34.341 96.079 34.1494 95.376 33.7656C94.673 33.3818 94.127 32.7792 93.742 31.956C93.355 31.1336 93.101 30.0743 92.976 28.7795C92.853 27.5014 92.792 25.9678 92.79 24.1778C92.619 24.5497 92.44 24.9252 92.253 25.3043C91.701 26.4205 91.092 27.5207 90.422 28.6031C89.7533 29.6876 89.0258 30.6539 88.2399 31.5045C87.4539 32.3542 86.6167 33.0383 85.7265 33.5604C84.8378 34.0803 83.9095 34.341 82.9456 34.341C80.6137 34.341 78.8594 33.4128 77.6809 31.5542C76.5973 29.8477 76.0119 27.3801 75.924 24.1514C75.7489 24.5319 75.5653 24.9162 75.3735 25.3043C74.8226 26.4205 74.2123 27.5207 73.5443 28.6031C72.8753 29.6876 72.148 30.6539 71.3606 31.5045C70.5746 32.3542 69.7372 33.0383 68.8485 33.5604C67.96 34.0803 67.0315 34.341 66.0662 34.341C64.9085 34.341 63.9765 34.1494 63.2744 33.7656C62.5701 33.3818 62.0257 32.7792 61.6388 31.956C61.2534 31.1336 60.9982 30.0743 60.8753 28.7795C60.7519 27.5015 60.6897 25.968 60.688 24.1782C60.5167 24.55 60.3373 24.9253 60.15 25.3043C59.5991 26.4205 58.9896 27.5207 58.3206 28.6031C57.6518 29.6876 56.9244 30.6539 56.1384 31.5045C55.351 32.3542 54.5137 33.0383 53.625 33.5604C52.7343 34.0803 51.808 34.341 50.8427 34.341C49.6836 34.341 48.7538 34.1494 48.0509 33.7656C47.3466 33.3818 46.8022 32.7792 46.4168 31.956C46.0299 31.1336 45.7747 30.0743 45.6518 28.7795C45.5266 27.4833 45.4637 25.9243 45.4637 24.1016V22.4965C45.4637 22.0997 45.4398 21.6842 45.3923 21.2521C45.3438 20.8209 45.2584 20.4299 45.134 20.0805C45.0096 19.7312 44.8442 19.444 44.638 19.2163C44.4297 18.991 44.168 18.8773 43.852 18.8773C43.4927 18.8773 43.1449 19.0314 42.8073 19.341C42.4689 19.6492 42.142 20.0597 41.8245 20.5746C41.5063 21.0888 41.197 21.6842 40.8933 22.3634C40.5888 23.0416 40.3039 23.7554 40.0357 24.5013C39.7652 25.2488 39.5079 26.0028 39.2591 26.764C39.0111 27.5237 38.7797 28.2438 38.5672 28.9221C38.3523 29.6013 38.16 30.2213 37.9873 30.7837C37.8151 31.346 37.6589 31.7905 37.5223 32.1208L37.4392 32.265C37.2874 32.5941 37.0949 32.8993 36.86 33.1788C36.6249 33.4618 36.3248 33.7009 35.9598 33.8996C35.5946 34.0976 35.1629 34.2562 34.6676 34.3719C34.1715 34.4886 33.5917 34.547 32.9294 34.547C32.6264 34.547 32.3401 34.5154 32.0718 34.4549C31.8029 34.3929 31.5656 34.2928 31.3573 34.156C31.1513 34.0198 30.9886 33.8456 30.8714 33.6318C30.755 33.4192 30.6958 33.163 30.6958 32.8597C30.6958 32.6833 30.7067 32.3989 30.7269 32.0071C30.7449 31.6815 30.761 31.3278 30.7784 30.9459L30.7785 30.9446L30.7891 30.7124L30.8513 29.2621C30.8714 28.7688 30.8896 28.3238 30.9025 27.9256C30.9298 26.6918 30.9559 25.5174 30.9808 24.4026ZM85.5623 13.0472C85.3057 13.9596 84.9746 14.8266 84.5688 15.6497C84.1618 16.4713 83.6759 17.1497 83.1096 17.6855C83.1096 17.0403 83.1387 16.2862 83.1922 15.4227C83.2477 14.5587 83.3201 13.6657 83.4097 12.7397C83.501 11.8135 83.6107 10.9027 83.741 10.0047C83.8725 9.106 84.0165 8.3044 84.1747 7.5973C84.3339 6.8923 84.4994 6.3204 84.6716 5.8813C84.8443 5.4435 85.0266 5.223 85.2204 5.223C85.4821 5.223 85.6882 5.3253 85.84 5.5312C85.9927 5.7379 86.0997 5.9835 86.1604 6.2716C86.2233 6.5596 86.2609 6.8556 86.2746 7.1559C86.2883 7.4583 86.2948 7.7046 86.2948 7.8968C86.2948 8.6097 86.237 9.4185 86.1199 10.3221C86.0034 11.228 85.8161 12.1369 85.5623 13.0472Z" fill="#FF3A46"/>
<path d="M66.8118 10.7553C67.3353 10.5234 67.7966 10.1928 68.1971 9.76871C68.5962 9.34321 68.9137 8.83921 69.148 8.25641C69.3829 7.67391 69.5001 7.03311 69.5001 6.33461C69.5001 5.79871 69.417 5.32561 69.2513 4.91511C69.0858 4.50401 68.8644 4.15391 68.5905 3.86591C68.3136 3.57781 67.9931 3.36191 67.6281 3.21851C67.2622 3.07531 66.8805 3.00391 66.4805 3.00391C65.8045 3.00391 65.1979 3.11841 64.6598 3.35251C64.1226 3.58651 63.667 3.90121 63.2948 4.29881C62.9216 4.69631 62.6353 5.16211 62.4357 5.69651C62.2362 6.23151 62.1357 6.80041 62.1357 7.40311C62.1357 7.85601 62.1877 8.30471 62.2919 8.75051C62.3952 9.19551 62.5629 9.59301 62.798 9.94301C63.0329 10.2922 63.3424 10.5746 63.7292 10.7863C64.1146 10.9986 64.5911 11.1052 65.1558 11.1052C65.735 11.1052 66.2861 10.9894 66.8118 10.7553Z" fill="#FF3A46"/>
<path d="M98.912 10.7553C99.437 10.5234 99.899 10.1928 100.299 9.76871C100.699 9.34321 101.017 8.83921 101.25 8.25641C101.485 7.67391 101.603 7.03311 101.603 6.33461C101.603 5.79871 101.518 5.32561 101.353 4.91511C101.189 4.50401 100.967 4.15391 100.692 3.86591C100.416 3.57781 100.095 3.36191 99.73 3.21851C99.365 3.07531 98.982 3.00391 98.581 3.00391C97.906 3.00391 97.301 3.11841 96.762 3.35251C96.224 3.58651 95.77 3.90121 95.396 4.29881C95.025 4.69631 94.738 5.16211 94.539 5.69651C94.338 6.23151 94.238 6.80041 94.238 7.40311C94.238 7.85601 94.291 8.30471 94.393 8.75051C94.497 9.19551 94.665 9.59301 94.901 9.94311C95.134 10.2922 95.445 10.5746 95.831 10.7863C96.218 10.9986 96.693 11.1052 97.259 11.1052C97.838 11.1052 98.389 10.9894 98.912 10.7553Z" fill="#FF3A46"/>
</svg>
